<svg id="visual" viewBox="0 0 1920 1080" width="1920" height="1080" xmlns="http://www.w3.org/2000/svg" xmlns:xlink="http://www.w3.org/1999/xlink" version="1.1"><rect x="0" y="0" width="1920" height="1080" fill="#00121f"></rect><defs><linearGradient id="grad1_0" x1="43.8%" y1="0%" x2="100%" y2="100%"><stop offset="14.444444444444446%" stop-color="#d89a3d" stop-opacity="1"></stop><stop offset="85.55555555555554%" stop-color="#d89a3d" stop-opacity="1"></stop></linearGradient></defs><defs><linearGradient id="grad1_1" x1="43.8%" y1="0%" x2="100%" y2="100%"><stop offset="14.444444444444446%" stop-color="#d89a3d" stop-opacity="1"></stop><stop offset="85.55555555555554%" stop-color="#d2754a" stop-opacity="1"></stop></linearGradient></defs><defs><linearGradient id="grad1_2" x1="43.8%" y1="0%" x2="100%" y2="100%"><stop offset="14.444444444444446%" stop-color="#bc5859" stop-opacity="1"></stop><stop offset="85.55555555555554%" stop-color="#d2754a" stop-opacity="1"></stop></linearGradient></defs><defs><linearGradient id="grad1_3" x1="43.8%" y1="0%" x2="100%" y2="100%"><stop offset="14.444444444444446%" stop-color="#bc5859" stop-opacity="1"></stop><stop offset="85.55555555555554%" stop-color="#984561" stop-opacity="1"></stop></linearGradient></defs><defs><linearGradient id="grad1_4" x1="43.8%" y1="0%" x2="100%" y2="100%"><stop offset="14.444444444444446%" stop-color="#6d3a60" stop-opacity="1"></stop><stop offset="85.55555555555554%" stop-color="#984561" stop-opacity="1"></stop></linearGradient></defs><defs><linearGradient id="grad1_5" x1="43.8%" y1="0%" x2="100%" y2="100%"><stop offset="14.444444444444446%" stop-color="#6d3a60" stop-opacity="1"></stop><stop offset="85.55555555555554%" stop-color="#402f52" stop-opacity="1"></stop></linearGradient></defs><defs><linearGradient id="grad1_6" x1="43.8%" y1="0%" x2="100%" y2="100%"><stop offset="14.444444444444446%" stop-color="#1b223b" stop-opacity="1"></stop><stop offset="85.55555555555554%" stop-color="#402f52" stop-opacity="1"></stop></linearGradient></defs><defs><linearGradient id="grad1_7" x1="43.8%" y1="0%" x2="100%" y2="100%"><stop offset="14.444444444444446%" stop-color="#1b223b" stop-opacity="1"></stop><stop offset="85.55555555555554%" stop-color="#00121f" stop-opacity="1"></stop></linearGradient></defs><defs><linearGradient id="grad2_0" x1="0%" y1="0%" x2="56.3%" y2="100%"><stop offset="14.444444444444446%" stop-color="#d89a3d" stop-opacity="1"></stop><stop offset="85.55555555555554%" stop-color="#d89a3d" stop-opacity="1"></stop></linearGradient></defs><defs><linearGradient id="grad2_1" x1="0%" y1="0%" x2="56.3%" y2="100%"><stop offset="14.444444444444446%" stop-color="#d2754a" stop-opacity="1"></stop><stop offset="85.55555555555554%" stop-color="#d89a3d" stop-opacity="1"></stop></linearGradient></defs><defs><linearGradient id="grad2_2" x1="0%" y1="0%" x2="56.3%" y2="100%"><stop offset="14.444444444444446%" stop-color="#d2754a" stop-opacity="1"></stop><stop offset="85.55555555555554%" stop-color="#bc5859" stop-opacity="1"></stop></linearGradient></defs><defs><linearGradient id="grad2_3" x1="0%" y1="0%" x2="56.3%" y2="100%"><stop offset="14.444444444444446%" stop-color="#984561" stop-opacity="1"></stop><stop offset="85.55555555555554%" stop-color="#bc5859" stop-opacity="1"></stop></linearGradient></defs><defs><linearGradient id="grad2_4" x1="0%" y1="0%" x2="56.3%" y2="100%"><stop offset="14.444444444444446%" stop-color="#984561" stop-opacity="1"></stop><stop offset="85.55555555555554%" stop-color="#6d3a60" stop-opacity="1"></stop></linearGradient></defs><defs><linearGradient id="grad2_5" x1="0%" y1="0%" x2="56.3%" y2="100%"><stop offset="14.444444444444446%" stop-color="#402f52" stop-opacity="1"></stop><stop offset="85.55555555555554%" stop-color="#6d3a60" stop-opacity="1"></stop></linearGradient></defs><defs><linearGradient id="grad2_6" x1="0%" y1="0%" x2="56.3%" y2="100%"><stop offset="14.444444444444446%" stop-color="#402f52" stop-opacity="1"></stop><stop offset="85.55555555555554%" stop-color="#1b223b" stop-opacity="1"></stop></linearGradient></defs><defs><linearGradient id="grad2_7" x1="0%" y1="0%" x2="56.3%" y2="100%"><stop offset="14.444444444444446%" stop-color="#00121f" stop-opacity="1"></stop><stop offset="85.55555555555554%" stop-color="#1b223b" stop-opacity="1"></stop></linearGradient></defs><g transform="translate(1920, 0)"><path d="M0 972C-83.1 948.9 -166.3 925.8 -238.1 888.7C-310 851.5 -370.6 800.4 -440 762.1C-509.4 723.8 -587.7 698.2 -652.7 652.7C-717.6 607.1 -769.4 541.5 -818.4 472.5C-867.4 403.5 -913.7 330.9 -938.9 251.6C-964 172.2 -968 86.1 -972 0L0 0Z" fill="#0c1b2d"></path><path d="M0 850.5C-72.7 830.3 -145.5 810 -208.3 777.6C-271.2 745.1 -324.3 700.4 -385 666.8C-445.7 633.3 -514.2 610.9 -571.1 571.1C-627.9 531.2 -673.2 473.9 -716.1 413.4C-759 353 -799.5 289.5 -821.5 220.1C-843.5 150.7 -847 75.4 -850.5 0L0 0Z" fill="#2c2947"></path><path d="M0 729C-62.3 711.7 -124.7 694.3 -178.6 666.5C-232.5 638.7 -277.9 600.3 -330 571.6C-382.1 542.8 -440.8 523.7 -489.5 489.5C-538.2 455.3 -577 406.2 -613.8 354.4C-650.6 302.6 -685.3 248.2 -704.2 188.7C-723 129.2 -726 64.6 -729 0L0 0Z" fill="#56355a"></path><path d="M0 607.5C-52 593.1 -103.9 578.6 -148.8 555.4C-193.7 532.2 -231.6 500.3 -275 476.3C-318.4 452.4 -367.3 436.4 -407.9 407.9C-448.5 379.4 -480.9 338.5 -511.5 295.3C-542.1 252.2 -571.1 206.8 -586.8 157.2C-602.5 107.6 -605 53.8 -607.5 0L0 0Z" fill="#833f62"></path><path d="M0 486C-41.6 474.4 -83.1 462.9 -119.1 444.3C-155 425.8 -185.3 400.2 -220 381.1C-254.7 361.9 -293.8 349.1 -326.3 326.3C-358.8 303.6 -384.7 270.8 -409.2 236.3C-433.7 201.7 -456.9 165.5 -469.4 125.8C-482 86.1 -484 43.1 -486 0L0 0Z" fill="#ab4e5e"></path><path d="M0 364.5C-31.2 355.8 -62.3 347.2 -89.3 333.2C-116.2 319.3 -139 300.2 -165 285.8C-191 271.4 -220.4 261.8 -244.7 244.7C-269.1 227.7 -288.5 203.1 -306.9 177.2C-325.3 151.3 -342.6 124.1 -352.1 94.3C-361.5 64.6 -363 32.3 -364.5 0L0 0Z" fill="#c96652"></path><path d="M0 243C-20.8 237.2 -41.6 231.4 -59.5 222.2C-77.5 212.9 -92.6 200.1 -110 190.5C-127.4 180.9 -146.9 174.6 -163.2 163.2C-179.4 151.8 -192.3 135.4 -204.6 118.1C-216.9 100.9 -228.4 82.7 -234.7 62.9C-241 43.1 -242 21.5 -243 0L0 0Z" fill="#d78743"></path><path d="M0 121.5C-10.4 118.6 -20.8 115.7 -29.8 111.1C-38.7 106.4 -46.3 100.1 -55 95.3C-63.7 90.5 -73.5 87.3 -81.6 81.6C-89.7 75.9 -96.2 67.7 -102.3 59.1C-108.4 50.4 -114.2 41.4 -117.4 31.4C-120.5 21.5 -121 10.8 -121.5 0L0 0Z" fill="#d89a3d"></path></g><g transform="translate(0, 1080)"><path d="M0 -972C85.4 -960.4 170.8 -948.7 246.7 -920.5C322.5 -892.4 388.9 -847.7 469.5 -813.2C550.1 -778.7 644.9 -754.5 687.3 -687.3C729.7 -620.1 719.6 -509.8 744.8 -430C770 -350.2 830.4 -300.8 874.2 -234.2C917.9 -167.6 945 -83.8 972 0L0 0Z" fill="#0c1b2d"></path><path d="M0 -850.5C74.7 -840.3 149.4 -830.1 215.8 -805.5C282.2 -780.8 340.3 -741.7 410.8 -711.5C481.3 -681.4 564.3 -660.2 601.4 -601.4C638.5 -542.6 629.6 -446.1 651.7 -376.3C673.7 -306.4 726.6 -263.2 764.9 -205C803.2 -146.7 826.8 -73.3 850.5 0L0 0Z" fill="#2c2947"></path><path d="M0 -729C64 -720.3 128.1 -711.5 185 -690.4C241.9 -669.3 291.7 -635.7 352.1 -609.9C412.6 -584.1 483.7 -565.9 515.5 -515.5C547.3 -465.1 539.7 -382.4 558.6 -322.5C577.5 -262.6 622.8 -225.6 655.6 -175.7C688.4 -125.7 708.7 -62.9 729 0L0 0Z" fill="#56355a"></path><path d="M0 -607.5C53.4 -600.2 106.7 -592.9 154.2 -575.3C201.6 -557.7 243.1 -529.8 293.4 -508.2C343.8 -486.7 403.1 -471.6 429.6 -429.6C456.1 -387.5 449.7 -318.6 465.5 -268.8C481.2 -218.9 519 -188 546.4 -146.4C573.7 -104.8 590.6 -52.4 607.5 0L0 0Z" fill="#833f62"></path><path d="M0 -486C42.7 -480.2 85.4 -474.4 123.3 -460.3C161.3 -446.2 194.4 -423.8 234.7 -406.6C275.1 -389.4 322.5 -377.3 343.7 -343.7C364.8 -310 359.8 -254.9 372.4 -215C385 -175.1 415.2 -150.4 437.1 -117.1C459 -83.8 472.5 -41.9 486 0L0 0Z" fill="#ab4e5e"></path><path d="M0 -364.5C32 -360.1 64 -355.8 92.5 -345.2C120.9 -334.6 145.8 -317.9 176.1 -304.9C206.3 -292 241.8 -283 257.7 -257.7C273.6 -232.5 269.8 -191.2 279.3 -161.3C288.7 -131.3 311.4 -112.8 327.8 -87.8C344.2 -62.9 354.4 -31.4 364.5 0L0 0Z" fill="#c96652"></path><path d="M0 -243C21.3 -240.1 42.7 -237.2 61.7 -230.1C80.6 -223.1 97.2 -211.9 117.4 -203.3C137.5 -194.7 161.2 -188.6 171.8 -171.8C182.4 -155 179.9 -127.5 186.2 -107.5C192.5 -87.5 207.6 -75.2 218.5 -58.6C229.5 -41.9 236.2 -21 243 0L0 0Z" fill="#d78743"></path><path d="M0 -121.5C10.7 -120 21.3 -118.6 30.8 -115.1C40.3 -111.5 48.6 -106 58.7 -101.6C68.8 -97.3 80.6 -94.3 85.9 -85.9C91.2 -77.5 89.9 -63.7 93.1 -53.8C96.2 -43.8 103.8 -37.6 109.3 -29.3C114.7 -21 118.1 -10.5 121.5 0L0 0Z" fill="#d89a3d"></path></g></svg>